<?xml version="1.0" standalone="no"?>
<!DOCTYPE svg PUBLIC "-//W3C//DTD SVG 20010904//EN"
 "http://www.w3.org/TR/2001/REC-SVG-20010904/DTD/svg10.dtd">
<svg version="1.0" xmlns="http://www.w3.org/2000/svg"
 width="1024.000000pt" height="1024.000000pt" viewBox="0 0 1024.000000 1024.000000"
 preserveAspectRatio="xMidYMid meet">

<g transform="translate(0.000000,1024.000000) scale(0.100000,-0.100000)"
fill="#000000" stroke="none">
<path d="M3225 9429 c-49 -13 -111 -74 -175 -171 -77 -118 -115 -211 -146
-360 -37 -182 -41 -318 -15 -447 39 -184 99 -300 222 -423 l76 -76 -43 -79
c-47 -85 -116 -262 -163 -421 -64 -215 -165 -713 -186 -918 l-7 -60 -86 -43
c-255 -126 -446 -322 -642 -660 -82 -142 -185 -386 -259 -613 -177 -547 -291
-1288 -291 -1891 0 -464 54 -714 183 -854 53 -58 107 -84 183 -91 52 -4 71 0
119 22 l58 26 49 -45 c94 -88 204 -117 293 -76 60 27 153 132 161 182 7 44 10
45 96 29 51 -10 102 -5 148 14 12 4 29 -29 77 -152 72 -182 75 -193 103 -329
20 -100 27 -277 12 -299 -4 -6 -23 -14 -42 -18 -130 -24 -287 -152 -358 -293
-33 -64 -64 -188 -65 -262 -1 -86 28 -142 97 -188 111 -75 240 -88 831 -80
765 11 937 36 1067 156 67 61 100 130 106 217 5 78 -14 266 -58 579 -16 110
-27 202 -25 204 2 2 69 -2 148 -8 194 -15 752 -13 895 2 l113 13 -5 -26 c-44
-217 -79 -517 -80 -680 l-1 -155 34 -63 c92 -168 233 -210 796 -233 357 -15
925 -7 1018 15 94 21 183 71 216 120 23 35 26 49 26 130 0 116 -28 207 -93
307 -77 118 -176 197 -297 239 -33 11 -63 26 -67 33 -13 20 -9 189 7 283 21
120 47 204 112 361 l55 131 29 -10 c30 -10 167 -6 204 6 17 6 22 -1 37 -52 32
-109 141 -192 253 -192 58 0 155 50 204 107 l40 45 28 -20 c76 -53 191 -55
271 -5 62 38 140 155 175 261 98 295 98 886 2 1559 -121 840 -354 1487 -683
1895 -127 157 -301 295 -457 363 l-80 34 -7 53 c-82 587 -188 1004 -333 1313
l-55 118 73 76 c41 42 90 101 110 132 105 165 156 396 127 583 -23 151 -69
316 -113 403 -52 105 -142 226 -192 260 -65 44 -140 30 -182 -34 -15 -22 -18
-50 -19 -158 0 -148 -12 -192 -86 -324 -45 -79 -175 -222 -236 -259 l-34 -20
-66 38 c-144 83 -416 185 -622 235 -157 37 -401 66 -620 72 -522 16 -1014 -90
-1380 -297 -103 -57 -91 -59 -181 25 -76 71 -131 139 -173 216 -56 102 -67
149 -73 304 -4 90 -10 150 -19 167 -23 44 -87 70 -139 57z m3879 -588 c44
-174 35 -367 -23 -495 -22 -50 -87 -137 -123 -166 l-27 -20 -47 62 c-26 35
-83 104 -126 155 l-79 92 31 16 c52 27 171 147 219 221 25 38 66 112 91 162
24 51 47 89 51 84 4 -4 19 -54 33 -111z m-3895 21 c70 -156 185 -303 294 -377
43 -29 46 -33 31 -46 -22 -18 -152 -181 -189 -236 -15 -24 -31 -43 -36 -43 -4
0 -30 22 -57 48 -111 108 -162 288 -141 494 9 89 45 238 58 238 3 -1 22 -35
40 -78z m2334 -157 c216 -33 450 -97 604 -166 265 -119 493 -323 653 -584 190
-310 311 -746 410 -1475 12 -85 25 -164 30 -176 5 -14 36 -32 92 -54 45 -18
131 -57 190 -87 98 -50 115 -63 215 -167 143 -149 219 -258 314 -451 102 -207
167 -388 233 -655 136 -541 200 -982 221 -1530 11 -269 -24 -600 -77 -721 -24
-57 -73 -108 -89 -92 -6 6 -14 64 -18 130 -8 122 -18 155 -51 173 -33 18 -59
11 -101 -27 -46 -42 -62 -70 -95 -166 -30 -89 -66 -150 -103 -176 -16 -12 -32
-21 -35 -21 -17 0 -29 68 -35 193 -8 153 -22 189 -76 195 -50 6 -76 -8 -166
-93 -90 -86 -110 -96 -143 -72 -18 13 -17 20 18 173 40 174 68 385 87 652 17
233 1 525 -46 848 l-35 237 0 537 c0 602 1 592 -71 674 -25 28 -66 58 -107 78
l-67 33 -350 6 c-381 7 -420 12 -520 68 -27 15 -63 47 -79 70 l-30 41 36 38
c53 56 132 162 168 225 30 53 89 214 104 283 6 25 14 32 51 42 54 14 78 47 78
107 0 84 -40 115 -173 134 -268 38 -2053 50 -2620 18 -162 -10 -315 -20 -340
-23 -86 -12 -130 -50 -130 -114 0 -46 19 -72 69 -95 23 -10 41 -24 41 -30 0
-38 58 -205 106 -303 46 -95 67 -126 134 -196 44 -46 80 -88 80 -94 0 -19 -61
-82 -104 -107 -94 -54 -124 -58 -516 -65 -423 -8 -430 -9 -517 -95 -41 -42
-55 -65 -72 -120 -20 -65 -21 -88 -21 -629 0 -514 -2 -571 -20 -674 -86 -492
-76 -1081 26 -1543 39 -177 39 -182 20 -198 -22 -19 -65 9 -131 84 -72 81
-112 107 -161 103 -59 -5 -80 -41 -77 -136 4 -117 -6 -195 -28 -232 l-20 -32
-24 22 c-45 42 -77 98 -110 195 -38 110 -68 155 -119 179 -81 38 -114 -6 -127
-169 -11 -143 -19 -157 -63 -110 -28 30 -68 152 -93 280 -15 75 -18 144 -18
415 1 326 9 462 46 750 45 360 156 869 252 1161 118 356 281 642 483 845 98
98 105 103 274 190 105 53 181 99 191 114 12 16 25 77 39 175 81 581 190 1023
315 1280 87 178 256 410 394 538 214 198 623 362 986 395 172 16 706 14 818
-3z m-1393 -1990 c0 -3 -4 -13 -10 -23 -5 -9 -39 -78 -74 -153 -35 -75 -68
-139 -74 -143 -17 -10 -74 92 -109 197 -19 55 -32 101 -31 102 2 2 66 7 143
12 77 6 143 11 148 11 4 1 7 0 7 -3z m570 1 c0 -9 -96 -175 -133 -229 -21 -33
-43 -55 -47 -50 -14 15 -140 259 -140 271 0 9 45 12 160 12 88 0 160 -2 160
-4z m552 -28 c-11 -18 -47 -78 -79 -133 -33 -54 -65 -101 -71 -103 -8 -2 -172
246 -172 263 0 3 77 5 171 5 l171 0 -20 -32z m486 22 l94 0 -27 -47 c-15 -27
-57 -92 -92 -147 -75 -116 -58 -123 -164 70 l-67 123 47 4 c25 2 62 3 81 1 19
-2 77 -4 128 -4z m621 -16 c2 -1 -7 -36 -19 -76 -23 -78 -66 -165 -103 -212
l-23 -29 -68 154 c-38 85 -71 160 -74 168 -4 11 20 12 139 6 79 -4 146 -9 148
-11z m-719 -1024 c129 -38 248 -145 319 -288 127 -253 130 -752 8 -1015 -120
-257 -361 -387 -617 -333 -219 46 -366 200 -435 457 -50 185 -53 530 -6 719
38 150 116 286 210 365 137 113 333 149 521 95z m-2318 -17 c17 -15 18 -49 18
-655 l0 -638 303 0 c222 0 306 -3 315 -12 8 -8 12 -53 12 -137 0 -102 -3 -128
-17 -143 -15 -17 -43 -18 -461 -18 -400 0 -447 2 -464 17 -17 15 -18 53 -18
798 0 594 3 784 12 793 8 8 55 12 147 12 111 0 138 -3 153 -17z m1288 -2 c7
-13 10 -278 10 -788 0 -679 -2 -771 -16 -791 -14 -21 -22 -22 -146 -22 -108 0
-135 3 -150 17 -17 15 -18 46 -18 579 l0 563 -137 3 -138 3 -3 100 -3 100 78
38 c107 54 221 128 268 176 l39 41 103 0 c91 0 103 -2 113 -19z m2362 -451
c97 -36 161 -106 192 -210 14 -45 16 -119 16 -474 0 -376 -2 -421 -17 -438
-14 -15 -32 -18 -128 -18 -73 0 -115 4 -123 12 -9 9 -12 107 -12 380 0 310 -2
375 -15 406 -33 79 -91 115 -180 115 -104 0 -173 -50 -194 -144 -6 -25 -11
-194 -11 -395 0 -293 -2 -354 -14 -363 -20 -17 -232 -17 -252 -1 -12 11 -14
94 -14 559 0 412 3 550 12 559 8 8 50 12 124 12 126 0 144 -8 144 -62 0 -30 1
-30 23 -14 136 98 311 128 449 76z m-4002 -1434 c30 -14 84 -30 120 -36 46 -8
647 -10 2055 -8 2251 3 2050 -4 2145 84 95 89 106 63 91 -218 -18 -335 -60
-589 -145 -880 -50 -169 -52 -173 -131 -353 -56 -127 -85 -247 -104 -425 -9
-81 -17 -337 -12 -393 2 -26 60 -47 133 -47 51 0 72 -6 113 -29 127 -74 201
-172 229 -303 5 -23 1 -30 -23 -43 -16 -8 -60 -18 -98 -21 l-69 -7 -12 39
c-14 48 -104 199 -140 237 -55 59 -111 72 -156 36 -56 -44 -51 -111 20 -225
24 -39 44 -74 44 -77 0 -4 -55 -7 -123 -7 l-122 0 -58 115 c-59 119 -109 185
-160 212 -42 21 -110 10 -137 -24 -34 -43 -26 -77 46 -196 36 -60 64 -110 62
-112 -2 -1 -102 1 -223 6 -389 15 -505 58 -505 187 0 63 47 410 91 666 44 258
44 269 -6 302 -24 15 -36 15 -193 -1 -289 -30 -362 -34 -552 -34 -220 0 -427
11 -642 35 -172 19 -204 14 -235 -33 -19 -28 -17 -48 30 -323 40 -233 77 -528
77 -616 0 -70 -15 -96 -72 -125 -65 -33 -180 -50 -413 -58 -121 -5 -221 -7
-223 -6 -5 4 43 94 82 155 57 86 49 158 -20 180 -87 29 -165 -38 -259 -220
l-56 -110 -124 0 c-69 0 -125 4 -125 8 0 5 19 38 41 73 80 122 86 175 28 223
-37 32 -50 32 -107 5 -57 -28 -147 -148 -182 -243 l-25 -68 -69 6 c-94 9 -121
23 -120 63 1 17 16 63 34 101 37 80 97 144 184 196 54 32 67 36 132 36 63 0
77 3 101 24 l28 24 -3 134 c-6 300 -44 503 -133 709 -79 184 -100 246 -154
454 -72 280 -94 445 -102 772 -3 132 -3 249 1 258 5 15 13 10 49 -28 24 -26
67 -57 97 -71z"/>
<path d="M4100 8152 c-178 -60 -304 -177 -362 -337 -30 -83 -36 -232 -13 -311
40 -139 128 -255 234 -309 68 -34 190 -65 255 -65 74 0 182 26 245 57 68 34
159 117 201 183 52 80 70 155 70 284 0 127 -20 206 -71 287 -46 72 -140 156
-216 191 -61 29 -78 32 -178 35 -86 2 -122 -1 -165 -15z m251 -238 c93 -46
154 -155 153 -269 -1 -121 -60 -211 -172 -263 -47 -21 -64 -24 -131 -20 -112
7 -187 54 -237 148 -29 53 -26 189 4 255 71 155 240 221 383 149z"/>
<path d="M4209 7736 c-29 -17 -59 -71 -59 -106 0 -36 31 -90 61 -105 41 -22
111 -19 142 5 52 41 54 138 4 188 -31 31 -108 40 -148 18z"/>
<path d="M5850 8150 c-134 -46 -236 -131 -287 -240 -44 -93 -56 -159 -52 -290
4 -111 5 -118 46 -203 71 -146 188 -238 350 -272 86 -18 140 -18 227 0 101 21
153 50 232 130 168 169 206 387 105 601 -56 118 -180 223 -320 271 -86 29
-221 31 -301 3z m264 -228 c133 -59 209 -218 172 -360 -53 -207 -307 -273
-463 -120 -117 115 -116 306 2 424 83 83 183 102 289 56z"/>
<path d="M5933 7749 c-69 -20 -103 -102 -68 -169 47 -90 167 -94 209 -6 20 42
20 67 2 111 -23 54 -82 81 -143 64z"/>
<path d="M5395 5375 c-55 -20 -117 -88 -144 -159 -30 -81 -40 -172 -41 -362 0
-259 38 -398 131 -477 79 -68 196 -72 279 -9 44 33 55 46 86 105 41 78 54 176
54 396 0 218 -15 312 -65 397 -62 106 -184 150 -300 109z"/>
</g>
</svg>
